# xmcd
#
# Track frame offsets:
#	150
#	26100
#	57135
#	85008
#	109225
#	141258
#	176770
#	218371
#	264482
#	266840
#
# Disc length: 4030 seconds
# Revision: 0
# Processed by: cddbd v1.5.2PL0 Copyright (c) Steve Scherf et al.
# Submitted via: dBpowerAMP V12.0
#
DISCID=8c0fbc0a
DTITLE=Steve Wilkerson/Joey Defrancesco - It's a Blues Sorta Thing
DYEAR=1999
DGENRE=Jazz, Sax
TTITLE0=The Chanceller (Steve Wilkerson)
TTITLE1=Red Top
TTITLE2=Misty
TTITLE3=It's You or No One
TTITLE4=Everyday (I Have the Blues)
TTITLE5=The Work Song
TTITLE6=It's a Blues Sorta Thing
TTITLE7=Georgia on My Mind
TTITLE8=Panini Intro
TTITLE9=Panini
EXTD=
EXTT0=
EXTT1=
EXTT2=
EXTT3=
EXTT4=
EXTT5=
EXTT6=
EXTT7=
EXTT8=
EXTT9=
PLAYORDER=
